# xmcd
#
# Track frame offsets: 
#        182
#        13047
#        22180
#        33860
#        47580
#        61955
#        75622
#        86747
#        100420
#        112615
#        122672
#        138600
#        153065
#        162110
#        176522
#        192222
#        204885
#        218505
#        228240
#        240032
#
# Disc length: 3387 seconds
#
# Revision: 2
# Processed by: cddbd v1.5.2PL0 Copyright (c) Steve Scherf et al.
# Submitted via: ExactAudioCopy v0.99pb5
#
DISCID=eb0d3914
DTITLE=Charley Pride - The Very Best of Charley Pride
DYEAR=1900
DGENRE=Country
TTITLE0=Crystal Chandeliers
TTITLE1=Kiss An Angel Good Mornin'
TTITLE2=Wonder Could I Live There Anymore
TTITLE3=Never Been So Loved (In All My Life)
TTITLE4=Amazing Love
TTITLE5=All I Have To Offer You Is Me
TTITLE6=Missin' You
TTITLE7=You Win Again
TTITLE8=Night Games
TTITLE9=Is Anybody Going To San Antone
TTITLE10=You're My Jamaica
TTITLE11=Kaw-Liga
TTITLE12=Honky Tonk Blues
TTITLE13=Burgers and Fries
TTITLE14=You're So Good When You're Bad
TTITLE15=Mountain Of Love
TTITLE16=Hope You're Feelin' Me (Like I'm Feelin' You)
TTITLE17=Someone Loves You Honey
TTITLE18=She's Just An Old Love Turned Memory
TTITLE19=I Cant Believe That You've Stopped Loving Me
EXTD=
EXTT0=
EXTT1=
EXTT2=
EXTT3=
EXTT4=
EXTT5=
EXTT6=
EXTT7=
EXTT8=
EXTT9=
EXTT10=
EXTT11=
EXTT12=
EXTT13=
EXTT14=
EXTT15=
EXTT16=
EXTT17=
EXTT18=
EXTT19=
PLAYORDER=
